<svg xmlns="http://www.w3.org/2000/svg" fill="none" viewBox="0 0 238 45" class="nuxt-icon nuxt-icon--fill"><path fill="#38317F" d="M35.21 23.393v14.22h-6.093V24.47c0-2.583-1.654-4.395-4.005-4.395-2.524 0-4.353 1.68-4.353 4.052v13.486h-6.093V24.47c0-2.583-1.654-4.395-3.96-4.395-2.566 0-4.352 1.68-4.352 4.052V37.57H0V15.29h6.354v2.932c1.088-2.113 3.308-3.445 6.093-3.445 3.089 0 5.745 1.549 7.137 4.05 1.175-2.456 3.96-4.05 7.314-4.05 4.697-.004 8.312 3.572 8.312 8.616ZM40.306 43.647l1.35-4.241c1.088.593 2.219.973 2.96.973 1.216 0 2.175-.38 2.655-1.186l.783-1.611L38.7 15.447h6.571l5.916 15.39 5.612-15.39h6.482l-9.223 23.024C52.36 42.754 49.49 45 45.964 45c-1.871.003-4.136-.548-5.658-1.353ZM79.224 8.674c0-1.737 1.473-3.3 3.364-3.3 1.81 0 3.279 1.566 3.279 3.3 0 1.862-1.473 3.383-3.279 3.383-1.894.003-3.364-1.521-3.364-3.383Zm.252 6.39h6.139v21.878h-6.139V15.064ZM89.189 34.321l2.74-4.264c2 1.393 4.523 2.448 7.525 2.448 1.697 0 2.913-.674 2.913-1.646 0-1.35-1.653-1.774-3.957-2.364-4.613-1.097-8.18-2.323-8.223-6.628-.043-4.136 3.481-7.09 8.788-7.09 3.22 0 6.394 1.097 8.874 2.7l-2.566 4.39c-2.043-1.223-4.394-1.941-6.308-1.941-1.567 0-2.655.548-2.655 1.309 0 1.184.913 1.52 3.958 2.323 3.871.971 8.176 2.236 8.176 7.006 0 4.306-3.61 7.049-9.135 7.049-3.604 0-7.433-1.181-10.13-3.292ZM126.392 36.347c-1.33 1.162-3.41 1.937-5.272 1.937-4.029 0-6.864-2.797-6.864-6.801V20.592h-3.144v-5.08h3.144V9.402h6.201v6.111h4.962v5.081h-4.962v9.9c0 1.462.973 2.496 2.171 2.496.886 0 1.771-.301 2.216-.733l1.548 4.09ZM146.639 30.224l4.017 4.01c-1.986 2.028-5.829 3.379-9.111 3.379-6.65 0-11.832-4.771-11.832-11.483 0-6.583 4.966-11.353 11.487-11.353 6.998 0 11.1 5.19 11.1 13.423h-16.108c.735 2.364 2.678 3.968 5.31 3.968 1.769-.003 3.929-.805 5.137-1.944Zm-10.365-6.458h9.977c-.604-2.153-2.245-3.545-4.795-3.545-2.376 0-4.362 1.347-5.182 3.545ZM169.573 14.777v5.308c-4.664 0-7.645 2.678-7.645 6.864v10.664h-6.306V15.292h6.306v4.144c1.467-2.888 4.234-4.66 7.645-4.66ZM191.497 22.903v14.034h-2.708V23.241c0-3.676-2.531-6.256-6.112-6.256-3.975 0-7.074 2.664-7.074 6.047V36.94h-2.707V7.388h2.707v11.287c1.221-2.41 4.105-4.1 7.423-4.1 4.977 0 8.471 3.467 8.471 8.328ZM213.42 15.447v22.318h-2.708v-3.668c-1.224 2.46-4.104 4.186-7.422 4.186-4.978 0-8.472-3.54-8.472-8.503V15.45h2.708v13.986c0 3.756 2.532 6.387 6.112 6.387 3.972 0 7.074-2.72 7.074-6.17V15.45h2.708v-.004ZM238 26.093c0 6.59-4.459 11.52-10.218 11.52-3.679 0-6.624-1.83-8.355-4.804v4.293h-2.686V7.388h2.686v12.027c1.734-2.975 4.676-4.803 8.355-4.803 5.756.003 10.218 4.932 10.218 11.48Zm-2.774 0c0-5.185-3.419-9.055-7.925-9.055-4.633 0-7.881 3.74-7.881 9.055 0 5.314 3.248 9.096 7.881 9.096 4.506-.003 7.925-3.912 7.925-9.096ZM77.23 8.912l-3.157-4.455L70.918 0l-3.155 4.457-3.155 4.455h3.108v28.7h6.407v-28.7h3.108Z"></path></svg>