<svg xmlns="http://www.w3.org/2000/svg" fill="none" viewBox="0 0 74 75" class="nuxt-icon nuxt-icon--fill"><path fill="#40ACFF" d="M65.069 34.577c-3.21 0-5.683 2.263-5.683 5.14V55.45h-7.683V19.512h7.683v12.597c1.683-2.313 4.683-3.858 8.157-3.858 2.529 0 4.75.788 6.457 2.163C70.613 13.368 55.26.5 36.828.5 18.958.5 3.98 12.599 0 28.869h3.695v3.495c1.316-2.518 4-4.113 7.367-4.113 3.734 0 6.943 1.85 8.627 4.831 1.418-2.931 4.79-4.831 8.84-4.831 5.683 0 10.05 4.267 10.05 10.284V55.5h-7.367V39.817c0-3.086-2-5.244-4.84-5.244-3.052 0-5.26 2.004-5.26 4.83v16.093H13.74V39.813c0-3.085-2-5.244-4.79-5.244-3.102 0-5.26 2.004-5.26 4.831v16.023C10.153 66.8 22.566 74.5 36.824 74.5c14.452 0 27.016-7.913 33.398-19.548V40.118c.004-3.278-2.102-5.541-5.153-5.541ZM48.98 19.512V55.45h-7.682V16.85h-3.64l3.739-5.264 3.738-5.263 3.739 5.263 3.738 5.264h-3.64v2.66h.008Z"></path></svg>